<svg width="617" height="622" viewBox="0 0 617 622" fill="none" xmlns="http://www.w3.org/2000/svg">
<g id="Logo principal 1">
<g id="Group">
<path id="logo-core" d="M213.15 573.47C207.94 569.09 208.17 564.18 214.26 549.72C215.37 547.09 216.01 544.67 215.68 544.35C215.36 544.02 213.32 545.16 211.15 546.88C199.86 555.82 187.67 556.34 180.79 548.16C179.35 546.45 177.87 543.69 177.51 542.02C177.14 540.36 176.61 539 176.34 539C176.06 539 173.28 540.98 170.17 543.39C161.34 550.23 158.86 551.23 154.35 549.74C149.44 548.13 146 543.12 146 537.6C146.01 532.91 150.65 523.15 157.56 513.25C159.97 509.81 161.54 507 161.06 507C158.99 507 130.96 536.27 126.17 543.44C123.32 547.69 121 551.58 121 552.08C121 554.18 116.99 552.77 114.48 549.8C110.52 545.09 111.43 541.76 121.52 524.03C126.34 515.55 131.49 505.66 132.97 502.06C134.45 498.45 136.35 495.37 137.2 495.2C139.23 494.81 145 499.73 144.99 501.84C144.98 502.75 143.18 506.79 140.99 510.81C138.79 514.83 137 518.65 137 519.29C137 519.94 141.39 516.13 146.75 510.84C164.94 492.9 168.83 491.14 176 497.62C178.2 499.61 180 501.67 180 502.2C180 502.72 177.82 505.71 175.15 508.83C168.51 516.6 161.43 526.82 159.04 532.1C156.52 537.66 156.33 543 158.66 543C162.72 543 178.64 528.28 188.8 515.13C206.11 492.74 206.32 492.52 210.15 492.2C212.83 491.97 214.5 492.52 216.61 494.34C219.14 496.52 219.32 497.04 218.23 499.14C217.56 500.44 216.09 506.45 214.95 512.5C213.82 518.55 211.77 527.26 210.39 531.85C209 536.45 208.12 540.46 208.43 540.76C208.73 541.06 213.43 536.86 218.86 531.41C227.68 522.57 229.3 520.36 233.83 511C236.63 505.23 239.48 498.36 240.17 495.75C241.58 490.38 243.18 489.78 247.37 493.07C250.63 495.64 250.65 497.27 247.5 504.4C246.12 507.51 245 510.33 245 510.67C245 511 248.71 507.71 253.25 503.36C262.03 494.94 266.43 492.39 270.45 493.4C282.98 496.54 278.26 518.58 260.82 538.39C255.76 544.14 255.69 544.3 258.55 543.6C262.77 542.58 274.52 534.59 281.28 528.15C284.73 524.86 289.66 518.37 293.5 512.07C301.69 498.65 304.96 495 308.83 495C310.45 495 312.79 495.82 314.03 496.82L316.28 498.65L309.7 506.98C302.4 516.21 291 537.64 291 542.14C291 545.79 292.63 545.79 297.6 542.13C306.16 535.82 329.62 509.4 333.9 501.24C334.97 499.19 334.75 498.79 331.53 496.89C327.97 494.79 326.27 491.34 327.38 488.46C328.33 485.98 334.92 483.73 339.43 484.33C344.33 484.99 346.32 487.38 345.63 491.76C345.15 494.84 345.4 495.17 350.1 497.55C355.98 500.53 357.61 503.61 355.96 508.63C355.35 510.47 350.86 518.07 345.98 525.53C341.1 532.98 336.81 540.01 336.45 541.14C335.6 543.84 337.24 545.38 340.03 544.49C343.77 543.3 363.38 523.02 368.41 515.13C377.57 500.78 386.84 493.07 395 493.03C398.65 493.01 405 496.19 405 498.04C405 498.65 406.33 498.33 408.03 497.32C410.77 495.7 411.33 495.67 413.69 497.01C418.84 499.94 418.72 501.02 412.3 509.68C405.75 518.51 398.97 530.35 397.03 536.35C395.96 539.63 396.01 540.44 397.31 541.74C398.68 543.11 399.18 543.05 402.17 541.2C404 540.07 409.59 534.95 414.59 529.82C424.18 519.99 429.56 511.66 433.13 501.09C434.84 496.03 435.57 495 437.46 495C440.6 495 445 498.69 445 501.32C444.99 502.52 444.19 504.85 443.2 506.5C435.12 520.04 435.18 520.13 445.44 509.71C450.74 504.33 456.52 499.04 458.29 497.96C462.27 495.54 466.21 495.45 468.23 497.75C471.55 501.54 471.25 503.47 465.56 514.6C462.53 520.53 460.2 525.53 460.38 525.71C460.55 525.88 466.86 518.82 474.4 510.01C486.28 496.12 488.48 494 491.01 494C494.44 494 501 499.27 501 502.02C501 503.02 498.95 506.24 496.44 509.17C490.31 516.34 485.99 522.96 481.4 532.24C478.37 538.36 477.83 540.23 478.8 541.2C480.92 543.32 486.56 539.31 496.31 528.77C501.28 523.4 505.9 519 506.57 519C508.64 519 509.06 521.98 507.42 525.15C504.81 530.21 490.18 545.81 485.47 548.57C481.52 550.89 480.66 551.04 477.55 550.02C472.34 548.3 469 543.78 469 538.46C469 533.35 471.86 525.51 476.2 518.71C477.88 516.08 479.07 513.73 478.84 513.5C478.28 512.94 463.07 531.17 454.44 542.75C450.48 548.06 446.82 552 445.85 552C443.68 552 438 547.25 438 545.44C438 544.68 439.96 541.01 442.36 537.28C447.88 528.69 457.47 510.13 456.75 509.42C455.37 508.04 429.65 537.15 423.32 547.25C421.34 550.41 419.36 553 418.93 553C417 553 412.1 547.67 411.81 545.27L411.5 542.6L408 545.65C401.25 551.54 397.67 552.31 392.3 549.04C390.14 547.72 388.72 545.79 387.9 543.05C387.23 540.82 386.42 539.04 386.09 539.08C385.77 539.13 383.22 541.94 380.43 545.33C377.65 548.72 374.22 551.9 372.82 552.39C367.06 554.42 360.46 549.74 359.36 542.84C359.02 540.73 358.22 539 357.58 539C356.95 539 354.19 541.29 351.46 544.08C348.73 546.87 344.62 550.27 342.33 551.63C338.39 553.96 337.97 554.01 334.6 552.61C330.3 550.81 327 545.76 327.03 541C327.05 536.19 329.51 531.33 338.39 518.54C346.48 506.88 347.83 502.71 343.9 501.47C343.78 501.43 343.67 501.4 343.57 501.36C343.14 501.22 342.8 501.1 342.46 501.11C341.11 501.12 339.78 502.98 332.83 512.13C314.41 536.33 297.23 554.01 292.15 554C289.38 553.99 284.18 550.26 282.55 547.09C281.7 545.45 281 542.29 281 540.09V536.08L274.42 541.06C266.63 546.96 262.4 549.22 255.07 551.39C244.06 554.65 234.74 552.31 231.19 545.37L229.25 541.59L226.99 546.03C223.48 552.91 219.99 563.92 219.32 570.25C218.63 576.77 217.67 577.27 213.15 573.47ZM283.2 288.31C278.77 281.8 270.89 274.04 263.75 269.15C259.27 266.09 259 265.65 259 261.4C259 252.55 253.44 246.75 238.48 239.99C229.34 235.86 229 235.59 229 232.47C229 229.91 228.15 228.52 224.98 225.87C216.1 218.43 213.53 216.41 212.79 213.85C212.49 212.81 212.49 211.68 212.5 210.06C212.5 209.83 212.5 209.58 212.5 209.32C212.5 205.18 213.16 202.24 214.8 199.11C217.54 193.92 217.1 192 213.19 192C209.87 192 207.71 194.05 205.54 199.25C203.6 203.89 203.6 207.05 205.55 214.54C207.48 221.97 210.17 225.98 215.14 228.84C218.95 231.03 220.19 233.01 217.75 232.99C212.54 232.96 183.2 223.92 172.32 218.99C166.85 216.51 166 215.74 164.96 212.27C164.1 209.38 164.07 206.57 164.84 201.59C166.91 188.29 175.46 175.33 185.92 169.64C194.68 164.87 207.53 164.83 214.48 169.55C222.29 174.85 226.33 170.62 219.65 164.14C215.55 160.17 208.75 158 200.42 158C194.31 158 194.14 157.93 193.52 155.07C192.62 150.99 194.45 142.02 197.36 136.28C200.43 130.22 208.53 122.57 214.74 119.86C217.36 118.72 222.23 117.56 225.58 117.27C232.7 116.67 238.4 118.73 245.38 124.46C250.45 128.61 252.73 128.92 253.57 125.59C254.9 120.29 248.12 114.61 236.13 110.97C227.71 108.41 227.19 107.01 232.47 101.16C239.34 93.56 257.73 87.66 269.17 89.39C277.92 90.72 286.33 98.69 289.23 108.41C290.43 112.42 290.6 148.73 289.43 149.9C289.14 150.19 287.92 149.79 286.7 149.02C278.25 143.65 275.73 142.76 267.58 142.25C256.65 141.57 249.33 143.75 243.42 149.45C236.18 156.42 235.27 163.94 240.37 174.58L243.73 181.6L240.96 187.08C237.23 194.46 236.24 201.1 238.53 203.39C241.2 206.06 243.4 204.97 244.34 200.49C247.03 187.64 251.15 183.47 261 183.6C270.88 183.74 281.09 190.19 286.81 199.92C289.47 204.46 289.5 204.71 289.83 226.25C289.84 226.92 289.86 227.57 289.86 228.2C290.08 241.96 290.16 247.17 288.47 247.83C287.44 248.23 285.75 246.94 283.03 244.85C282.82 244.69 282.61 244.53 282.39 244.37C276.72 240.03 268.96 236 266.3 236C265.24 236 263.51 236.65 262.44 237.44C260.92 238.57 260.73 239.26 261.57 240.62C262.73 242.53 263 242.69 270.86 246.11C277.61 249.05 284.19 256.22 286.99 263.7C291.07 274.61 291.86 292.55 288.31 293.73C287.67 293.94 285.37 291.5 283.2 288.31ZM303.04 293.07C301.51 290.22 301.78 279.3 303.53 272.46C307.09 258.58 314.98 248.78 325.28 245.45C331.72 243.37 333.42 241.89 332.54 239.11C330.86 233.83 321.35 236.17 312.28 244.11L312.1 244.27C308.29 247.6 306.05 249.56 304.74 249.06C302.87 248.35 302.96 242.5 303.17 228.23L303.18 227.75C303.49 207.33 303.6 206.29 306.08 200.99C309.32 194.1 314.04 189.32 320.49 186.41C334.68 180 345.41 184.01 347.5 196.5C348.59 202.98 348.99 203.86 351.18 204.56C353.98 205.45 354.97 203.59 354.98 197.4C355 193.86 354.24 190.86 352.5 187.6C349.36 181.7 349.38 180.38 352.64 174.09C356.14 167.36 356.22 160.04 352.89 153.33C350.91 149.32 349.5 147.99 344.59 145.51C339.21 142.79 337.83 142.53 329.09 142.59C321.75 142.64 318.1 143.18 313.5 144.89C310.2 146.12 306.49 147.37 305.25 147.68L303 148.23V130.56C303 120.84 303.48 111 304.06 108.69C305.76 101.94 311.03 95.62 317.68 92.36C322.84 89.82 324.57 89.5 333 89.5C341.14 89.5 343.29 89.87 348.05 92.1C354.58 95.17 360.06 99.75 363.13 104.71C365.2 108.06 365.23 108.36 363.6 109.55C362.65 110.25 358.81 111.57 355.08 112.48C346.5 114.58 342.41 117.07 340.32 121.45C338.97 124.29 338.9 125.18 339.96 126.45C341.91 128.8 343.46 128.36 348.48 124.02C366.34 108.56 395.2 121.7 399.91 147.43C400.51 150.7 401 153.93 401 154.61C401 157.53 397.94 158.75 388.81 159.45C379.14 160.2 374.04 162.19 371.99 166.02C369.32 171.01 372.39 174.39 376.77 171.27C380.61 168.53 382.44 167.19 384.5 166.57C386.48 165.97 388.65 166.04 392.99 166.19L393.5 166.21C403.67 166.54 408.61 168.41 415.98 174.72C420.87 178.9 426 186.4 426 189.37C426 192.88 417.54 199.7 406.75 204.9C401.11 207.61 389.31 213.26 380.53 217.45C345.21 234.3 338.67 240.06 334.1 258.37C331.72 267.87 330.22 269.98 320.69 277.23C315.14 281.46 311.63 285.07 309.11 289.14C307.13 292.35 305.18 294.98 304.79 294.99C304.39 295 303.6 294.13 303.04 293.07ZM390.52 333.75C390.29 333.06 389.61 330.61 389.02 328.29C387.66 322.98 382.54 316.26 378.02 313.85C375.46 312.5 372.39 312 366.52 311.99C357.84 311.99 353.88 310.37 351.35 305.81C349.57 302.61 349.69 292.69 351.55 288.22C354.71 280.64 363.57 274 370.53 274C377.05 274 380.32 270.17 376.51 267.01C374.21 265.1 364.79 266.69 358.35 270.08C351.34 273.77 349.5 273.74 345.91 269.91C339.49 263.03 339.8 254.91 346.77 247.44C355.09 238.54 364.66 232.74 391.96 220.05C402.42 215.18 414.43 208.9 418.64 206.1C422.85 203.29 426.9 201 427.65 201C428.55 201 429 202.29 429 204.88C429 207.01 429.27 210.08 429.59 211.71C430.16 214.54 429.76 214.95 420.84 220.71C410.33 227.5 403.59 231.06 395.54 234.07C392.51 235.2 389.75 236.6 389.39 237.18C389.04 237.75 389.98 239.21 391.49 240.41L394.24 242.6L392.18 246.66C389.9 251.11 390.61 253 394.55 253C397.47 253 399.46 250.54 401.97 243.82C404.09 238.16 404.12 238.12 413.81 233.14C419.16 230.4 425.3 226.75 427.46 225.03C432.69 220.88 434.81 221.37 437.95 227.47C440.31 232.08 440.5 233.43 440.5 245.99C440.5 259.28 440.44 259.66 437.21 266.22C431.8 277.21 422.46 283.83 403.68 289.98C396.35 292.38 394.51 294.41 397.59 296.72C400.31 298.76 406.18 297.88 414.67 294.15C418.61 292.42 422.82 291 424.03 291C426.12 291 426.2 291.33 425.81 298.25C425.28 307.7 421.54 315.6 414.07 323.06C405.81 331.31 391.83 337.65 390.52 333.75ZM191.2 331.47C177.89 324.81 168.83 311.76 168.15 298.25C167.71 289.58 167.82 289.53 178.28 294.12C189.42 299.01 198.49 299.35 197.81 294.84C197.56 293.18 195.69 292.17 188.51 289.83C176.69 285.99 172.66 283.5 164.91 275.28C155.72 265.54 152.7 258.91 152.18 247.34C151.82 239.21 152.05 237.59 154.24 232.84C155.6 229.9 157.63 226.38 158.76 225L160.82 222.51L168.66 226.29C174.28 229 183.72 231.85 202 236.37C230.98 243.53 242.73 248.16 247.39 254.27C252.53 261 251.76 269.61 245.81 272.08C243.05 273.22 242.14 273.01 235.38 269.67C227.13 265.59 218.4 264.61 216.01 267.49C213.83 270.11 215.73 271.86 223.2 274.1C234.05 277.35 237.59 279.44 240.38 284.25C245.29 292.73 244.64 303.51 238.87 309.28C236.05 312.11 235.62 312.22 229.98 311.58C216.72 310.08 207.4 316.94 203.98 330.75C202.64 336.16 200.79 336.26 191.2 331.47ZM330.73 373.97C318.37 370.87 309.07 361.92 304.35 348.6C302.14 342.35 302.5 326.18 305.04 317C308.95 302.91 318.34 288.52 329.27 279.88C334.93 275.4 339.34 274.8 342.81 278.04C345.39 280.44 345.54 282.47 343.5 287.35C340.73 293.98 342.06 302.84 347.53 314.19C349.25 317.75 349.25 317.97 347.41 320.55C342.95 326.79 341.03 330.69 341.02 333.55C340.98 340.17 345.48 339.9 348.96 333.07C353.28 324.62 366.08 317.59 373.36 319.67C378.27 321.08 381 326.06 381 333.61C381 341.47 378.97 347.71 373.83 355.7C366.26 367.44 354.98 374.16 342.02 374.64C337.88 374.79 332.81 374.49 330.73 373.97ZM247.12 373.42C233.05 369.64 218.09 358.13 214.73 348.5C213.77 345.75 212.99 340.67 213 337.22C213 325.71 217.8 319 226.03 319C232.31 319 240.24 324.74 243.98 332C246.7 337.26 249.59 339.58 251.48 338.02C254.21 335.75 253.29 330.74 249 324.62C244.77 318.58 243.9 314.16 246.51 311.99C247.34 311.3 248.75 308.24 249.64 305.18C251.21 299.76 251.15 293.87 249.4 283.84C248.81 280.41 249.01 280.02 252.79 277.52L256.81 274.86L260.95 276.97C274.6 283.94 285.86 302.79 289.16 324.19C291.55 339.72 286.34 357.72 276.64 367.41C269.52 374.53 259.12 376.65 247.12 373.42ZM90.43 565.21C87.82 563.44 86 559.24 86 554.96C86 545.86 90.07 536.51 104.8 511.77C121.7 483.4 126.14 473.12 123.97 467.42C122.05 462.37 110.93 462.82 99.92 468.39C84.69 476.09 72.1 487.93 65.76 500.47C60.61 510.68 62.29 521 69.11 521C71.82 521 71.44 522.85 68.59 523.57C67.14 523.93 64.34 523.36 61.56 522.13C52.72 518.22 51.62 508.24 58.49 494.29C61.55 488.07 64.27 484.56 72.02 476.86C80.26 468.67 83.16 466.51 91.4 462.42C100.34 457.98 101.78 457.58 109.98 457.19C121.33 456.64 126.64 458.82 130.65 465.66C132.93 469.55 133.2 470.92 132.76 476.31C132.11 484.3 129.33 490.33 113.52 518.01C99.11 543.22 95.74 550.22 93.94 558.62C92.54 565.17 91.97 566.24 90.43 565.21ZM283.6 184.48C278.51 179.98 270.73 177.15 260.63 176.12C250.46 175.09 246.55 173.19 245 168.51C243.47 163.86 244.51 159.62 248.24 155.37C252.67 150.33 255.92 149 263.7 149.02C279.98 149.07 290.97 159.58 290.99 175.12C291 183.23 290.12 188.01 288.62 187.96C288.01 187.94 285.75 186.37 283.6 184.48ZM302.61 186.42C302.27 185.55 302 181.39 302.01 177.17C302.03 164.9 307.5 155.93 317.79 151.34C322.95 149.04 336.4 149 340.66 151.27C347.46 154.9 349.66 161.15 346.64 168.28C344.3 173.79 342.04 175 331.12 176.53C320.61 178.01 315.09 180.16 309.02 185.14C305.08 188.38 303.48 188.7 302.61 186.42ZM245.3 540.3C254.47 533.94 266.94 512.63 266.99 503.25C267 500.01 264.87 500.45 259.3 504.86C252.01 510.62 232 534.58 232 537.55C232 538.62 238.71 542.93 240.45 542.98C240.97 542.99 243.15 541.78 245.3 540.3ZM528.98 498.78C525.58 485.7 524.49 484.68 510.71 481.57C506.74 480.68 508.02 479.54 514.68 478.05C521.79 476.46 526.32 472.32 527.96 465.94C530.17 457.34 530.73 457.2 532.88 464.77C535.1 472.58 540.95 477.23 551.39 479.49C555.27 480.32 553.74 481.42 546.53 482.96C538.55 484.67 534.71 488.45 532.95 496.32C532.24 499.5 531.31 502.31 530.88 502.58C530.45 502.84 529.59 501.13 528.98 498.78ZM378.8 537.25C385.96 529.59 397.74 511.9 398.55 507.58C399.75 501.17 396.73 500.24 390.16 505C378.76 513.26 364.69 543 372.18 543C372.86 543 375.84 540.41 378.8 537.25ZM192.11 543.71C193 543.04 194.92 540.11 196.39 537.21C200.38 529.33 206.41 504.94 204.34 505.04C202.71 505.12 186.5 527.15 186.84 528.82C187.39 531.5 187.29 534.23 186.49 538.21C186.09 540.24 186.02 542.61 186.34 543.46C187.05 545.29 189.87 545.42 192.11 543.71ZM317.2 485.74C314.89 482.96 314.83 479.26 317.01 474.98C321.44 466.3 326.97 463.72 332.14 467.92L334.5 469.83L330.44 473.67C328.21 475.78 325.06 479.64 323.44 482.25C320.41 487.14 319.01 487.92 317.2 485.74ZM339 491.56C339 489.52 337.28 488.71 334.44 489.42C330.2 490.49 331.86 492.53 337.25 492.88C338.21 492.95 339 492.35 339 491.56Z" fill="#DEB158"/>
<path id="logo-details" d="M398 445.45C392.69 443.66 389.26 443.07 386.25 443.44C383.91 443.73 382 443.66 382 443.29C382 442.91 383.21 441.35 384.69 439.8C386.88 437.52 387.05 437 385.65 437C383.15 437 376.86 433.58 374.3 430.83C364.92 420.78 368.37 402.38 380.76 396.42C385.59 394.09 400.2 394.01 404.57 396.29C414.37 401.38 417.89 414.24 412.61 425.6C410.07 431.05 406.39 434.28 400.32 436.38L396.55 437.69L403.37 439.96C407.81 441.43 411.41 442.03 413.67 441.67C417.66 441.02 417.76 442.35 413.94 445.18C409.95 448.12 406.1 448.19 398 445.45ZM399.49 430.83C403.26 427.87 405 423.19 405 416.05C405 405.19 401.33 399.67 393.32 398.48C385.01 397.24 379 403.7 379 413.88C379 421.49 380.81 426.63 384.71 430.05C388.98 433.8 395.29 434.13 399.49 430.83ZM226.88 437.19C225.98 436.81 219.77 430.08 213.07 422.23C206.37 414.37 200.46 408.21 199.94 408.53C198.84 409.22 198.68 429.99 199.77 431.57C200.17 432.16 201.32 432.95 202.33 433.32C206.26 434.77 203.36 436.5 197 436.5C190.21 436.5 188.29 435.1 192.47 433.19L195 432.04V415.62V399.2L191.92 398.12C187.23 396.49 189.39 395 196.45 395H202.79L214.04 408.5C220.22 415.92 225.67 422 226.14 422C226.61 422 227 416.9 227 410.66C227 399.54 226.95 399.3 224.5 398.18C219.97 396.12 221.74 395 229.5 395C235.46 395 237 395.3 237 396.48C237 397.3 235.88 398.24 234.52 398.58L232.04 399.21L231.77 418.34C231.49 438.52 231.34 439.09 226.88 437.19ZM324.69 436.57C322.04 435.86 319.51 434.88 319.06 434.39C317.91 433.15 319.24 424.75 320.66 424.28C321.3 424.07 322.13 425.31 322.51 427.05C323.06 429.55 324.12 430.61 327.63 432.16C330.34 433.36 332.92 433.86 334.28 433.44C337.94 432.33 341 428.88 341 425.85C341 422.39 338.15 420.35 332 419.41C326.89 418.63 322.07 416.44 320.28 414.1C318.57 411.86 318.71 404.47 320.52 400.97C322.96 396.25 326.8 394.88 336.67 395.21C346.5 395.54 347.71 396.41 346.6 402.34C345.88 406.13 343 407.59 343 404.15C343 401.04 339.73 399 334.74 399C329.57 399 327 400.83 327 404.5C327 408.74 328.97 409.76 342.72 412.57C345.69 413.18 348.65 416.49 349.35 419.98C350.75 427 345.69 434.12 337.61 436.52C331.75 438.26 330.99 438.27 324.69 436.57ZM434.99 437.12C424.34 433.65 423 430.89 423 412.51V398.95L420.34 397.94C415.55 396.12 419.23 394.9 428.59 395.21C437.37 395.5 439.43 396.5 435.24 398.44C433.42 399.29 433.12 400.66 432.52 410.94C431.73 424.23 432.43 427.08 437.23 430C443.16 433.61 449.79 432.07 452.45 426.46C453.58 424.08 454 419.96 454 411.2V399.2L450.92 398.12C446.1 396.44 448.47 395 456.06 395C461.61 395 463 395.3 463 396.52C463 397.36 461.88 398.48 460.5 399C458.01 399.95 458 400 458 413.02C458 428.47 456.44 433.08 450.33 435.64C445.93 437.48 438.33 438.21 434.99 437.12ZM93.71 436.38C92.48 435.14 92.93 434.36 95.52 433.17L98.05 432.02L97.77 415.26C97.5 398.74 97.47 398.5 95.25 398.18C94.01 398 93 397.22 93 396.43C93 395.32 94.67 395 100.57 395H108.13L114.95 409.25L121.76 423.5L128.63 409.5L135.5 395.5H142.25C149.17 395.5 151.24 396.74 147.25 398.49C145.05 399.45 145 399.83 145 415.76V432.05L147.58 433.03C149 433.57 149.98 434.57 149.75 435.26C149.19 436.94 131.84 437.01 131.28 435.33C131.06 434.69 131.75 433.9 132.81 433.56C135.17 432.81 135.91 427.02 135.07 415.7L134.5 407.89L127.25 422.45C123.27 430.45 119.42 437 118.7 437C117.98 437 114.3 430.46 110.53 422.46C106.76 414.46 103.3 407.68 102.84 407.4C102.38 407.11 102 412.54 102 419.47V432.05L104.58 433.03C108.89 434.67 106.87 436.47 100.38 436.79C97.1 436.95 94.1 436.77 93.71 436.38ZM155.42 435.87C155.02 435.22 155.43 434.16 156.35 433.49C157.77 432.45 158 429.96 158 415.66V399.04L155.5 398.41C154.12 398.07 153 397.16 153 396.39C153 395.26 156.09 395 169.63 395H186.26L185.71 399.12C184.96 404.73 183.54 405.91 181.84 402.35C180.59 399.73 179.99 399.48 174.24 399.2L168 398.9V405.95V413H172.88C176.93 413 177.86 412.66 178.29 411C178.58 409.9 179.55 409 180.45 409C181.83 409 182.05 410 181.8 415.17C181.47 421.86 179.69 423.95 178.03 419.58C177.18 417.33 176.47 417 172.52 417H168V424.5V432H175.02C182.03 432 182.05 431.99 182.65 429C182.98 427.35 183.89 426 184.68 426C185.77 426 186.03 427.23 185.8 431.25L185.5 436.5L170.83 436.78C160.38 436.97 155.94 436.71 155.42 435.87ZM248.45 435.92C247.73 434.75 249.59 433.04 251.62 433.02C253.28 432.99 253.98 427.02 253.99 412.75L254 400H248.61C243.69 400 243.16 400.22 242.59 402.5C242.24 403.88 241.3 405 240.48 405C239.37 405 239 403.75 239 400V395H258.5H278L277.99 397.75C277.95 404.44 274.9 407.73 273.59 402.5C273.03 400.25 272.46 400 267.98 400H263V416.02V432.05L265.58 433.03C267 433.57 267.98 434.57 267.75 435.26C267.19 436.94 249.46 437.56 248.45 435.92ZM282.57 436.11C282.27 435.63 282.69 434.67 283.51 433.99C284.72 432.99 285 429.61 285 415.9V399.04L282.46 398.4C281.06 398.05 280.08 397.25 280.29 396.63C280.54 395.87 285.92 395.41 296.83 395.23L313 394.95L312.98 398.73C312.98 400.8 312.58 403.12 312.1 403.88C310.99 405.63 309 404.46 309 402.05C309 399.68 307.09 399 300.37 399H294.91L295.2 405.75L295.5 412.5L300.17 412.8C304.14 413.06 304.93 412.8 305.48 411.05C305.84 409.92 306.8 409 307.62 409C308.8 409 309.04 410.26 308.8 415.25C308.57 420.01 308.14 421.5 307 421.5C306.17 421.5 305.36 420.49 305.18 419.25C304.9 417.26 304.28 417 299.93 417H295V424.54V432.09L302.21 431.79C308.97 431.52 309.45 431.34 310 429C310.33 427.62 311.24 426.5 312.03 426.5C313.11 426.5 313.38 427.61 313.14 431C312.96 433.47 312.6 435.83 312.35 436.25C311.69 437.32 283.23 437.19 282.57 436.11ZM468.46 435.94C468.1 435.35 468.53 434.07 469.43 433.08C470.81 431.55 471.01 428.92 470.78 415.39C470.51 400 470.43 399.47 468.25 398.51C467.01 397.97 466 396.96 466 396.26C466 395.3 469.79 395 482.05 395H498.11L497.8 399.52C497.46 404.69 496.09 405.47 494.17 401.59C492.92 399.06 492.51 398.92 486.67 399.2L480.5 399.5V406V412.5L485.25 412.8C489.59 413.08 490.1 412.88 491 410.49C491.55 409.06 492.45 408.16 493 408.5C494.39 409.36 494.3 422 492.91 422C492.3 422 491.58 421.1 491.29 420C490.85 418.31 489.93 418 485.38 418H480V425V432H487.05C493.99 432 494.12 431.95 495.15 429C496.58 424.9 499 425.06 498.99 429.25C498.95 437.24 499.43 437 483.44 437C474.41 437 468.88 436.61 468.46 435.94ZM484.55 258.39C483.72 254 479.96 250 476.67 250C475.34 250 473.73 249.38 473.1 248.62C472.17 247.5 472.58 247.11 475.26 246.61C480.15 245.69 482.8 243.41 484.13 238.96C484.78 236.78 485.63 235 486.01 235C486.39 235 487.4 236.78 488.25 238.96C489.84 243.01 494.83 246.99 498.33 247C501.32 247 499.63 249.39 496.13 250.11C491.84 250.99 489.22 253.52 487.83 258.16C486.4 262.96 485.42 263.03 484.55 258.39ZM93.61 222.62C92.73 220.5 91.14 218.59 90.01 218.29C87.45 217.62 87.45 216.37 89.99 215.01C91.08 214.42 92.7 212.54 93.59 210.82L95.2 207.71L96.66 210.72C97.46 212.38 99.22 214.23 100.56 214.85C103.68 216.27 103.65 217.38 100.45 218.84C99.05 219.48 97.3 221.45 96.55 223.21L95.2 226.42L93.61 222.62ZM149.59 218.1C148.39 216.77 148.21 215.99 149 215.5C150.14 214.79 154 217.61 154 219.15C154 220.68 151.35 220.04 149.59 218.1ZM142.25 210.77C139.66 208.01 139.43 207 141.38 207C143.28 207 145.23 209.57 144.83 211.54C144.55 212.9 144.13 212.78 142.25 210.77ZM135.16 201.45C133.74 198.34 133.69 197 134.97 197C136.23 197 139.12 202.55 138.29 203.37C137.15 204.52 136.33 204.02 135.16 201.45ZM131.49 189.95C130.61 187.19 132.65 184.84 134.04 187.01C134.57 187.83 134.89 189.14 134.75 189.92C134.34 192.25 132.22 192.27 131.49 189.95ZM101.2 187.8C99.57 186.17 99.69 184.45 101.57 182.57C103.7 180.44 105.71 180.6 107 183C109.16 187.04 104.39 190.99 101.2 187.8ZM434.57 186.11C433.8 184.87 435.58 182 437.12 182C438.39 182 438.2 183.34 436.65 185.46C435.68 186.79 435.1 186.97 434.57 186.11ZM133 178.47C133 176.17 135.37 174.04 136.58 175.25C137.27 175.94 134.86 181 133.84 181C133.38 181 133 179.86 133 178.47ZM439.64 180.23C438.98 179.16 441.7 175 443.06 175C443.58 175 444 175.61 444 176.35C444 178.13 440.35 181.38 439.64 180.23ZM158 178.12C158 176.99 163.87 174.54 164.67 175.34C165.01 175.68 164.72 176.64 164.02 177.48C162.67 179.1 158 179.6 158 178.12ZM149.2 175.8C147.86 174.46 147.58 172 148.78 172C150.07 172 154 175.05 154 176.06C154 177.4 150.62 177.22 149.2 175.8ZM109.42 171.07C97.42 164.19 90.44 149.92 91.2 133.85C91.49 127.73 91.6 127.49 94.29 127.18C95.96 126.99 98.81 127.87 101.38 129.37C112.44 135.86 120.2 150.18 120.2 164.13C120.2 174.97 118.33 176.18 109.42 171.07ZM445 171.21C445 170.13 445.71 168.65 446.59 167.93C447.98 166.77 448.13 166.96 447.84 169.48C447.45 172.74 445 174.23 445 171.21ZM484.05 171.56C482.22 169.36 483.51 167 486.54 167C488.78 167 489.09 167.38 488.82 169.74C488.45 172.87 485.94 173.83 484.05 171.56ZM138.58 168.37C139.65 163.86 140.89 163.19 143.11 165.91C145.3 168.6 144.82 169.53 140.7 170.55C138.03 171.21 137.93 171.11 138.58 168.37ZM161.17 168.68C159.18 166.56 159.15 165 161.1 165C162.38 165 165 168.06 165 169.57C165 171.64 163.66 171.33 161.17 168.68ZM413 165.22C413 162.56 416.04 158.64 417.2 159.8C417.83 160.43 417.6 161.87 416.56 163.89C414.78 167.32 413 167.99 413 165.22ZM149.24 165.34C147.16 164.5 148.92 163 152 163C155.28 163 156.78 164.49 154.41 165.4C152.62 166.08 151.06 166.07 149.24 165.34ZM448.56 164.22C447.61 163.28 447.94 160.15 449.06 159.46C450.27 158.72 454.2 161.87 453.49 163.01C452.86 164.03 449.25 164.92 448.56 164.22ZM458 164C456.08 162.81 457.28 161.76 460.08 162.17C461.98 162.45 462.1 162.69 460.88 163.69C459.98 164.44 458.89 164.55 458 164ZM133.57 158.79C131.52 155.87 133.34 153.74 135.46 156.55C137.15 158.78 137.44 161 136.06 161C135.54 161 134.42 160.01 133.57 158.79ZM465 160.11C465 159.19 467.37 158 469.2 158C469.83 158 469.75 158.59 469 159.5C467.64 161.14 465 161.54 465 160.11ZM443.2 157.8C441.84 156.44 441.59 154 442.8 154C444.05 154 446 156.26 446 157.7C446 159.33 444.77 159.37 443.2 157.8ZM450 153.58C450 151.9 450.55 151 451.57 151C452.61 151 453.03 151.73 452.82 153.17C452.35 156.37 450 156.72 450 153.58ZM471.7 155.37C470.71 154.38 472.9 151 474.54 151C475.34 151 476 151.38 476 151.85C476 153.15 472.42 156.09 471.7 155.37ZM417 150.5C417 148.06 417.45 147 418.5 147C419.55 147 420 148.06 420 150.5C420 152.94 419.55 154 418.5 154C417.45 154 417 152.94 417 150.5ZM128.04 149.07C127.47 148 127.01 146.31 127.03 145.32C127.06 143.74 127.33 143.81 129.03 145.86C131.12 148.37 131.64 151 130.04 151C129.5 151 128.6 150.13 128.04 149.07ZM441 148.5C441 146.94 441.57 146 442.5 146C444.11 146 444.35 146.92 443.39 149.42C442.46 151.85 441 151.29 441 148.5ZM476.47 146.68C476.06 145.67 476.23 144.37 476.85 143.75C478.54 142.06 479.45 143.68 478.26 146.24C477.3 148.31 477.15 148.35 476.47 146.68ZM447.46 145.93C447.1 145.35 447.05 144.62 447.36 144.31C448.18 143.49 451 144.77 451 145.97C451 147.33 448.3 147.3 447.46 145.93ZM484.1 143.14C482.04 141.75 483.39 135.33 486.73 130.63C490.37 125.49 498.79 121 504.77 121H509.25L508.78 125.96C508.19 132.07 504.87 136.71 498.37 140.52C493.39 143.44 486.44 144.72 484.1 143.14ZM123.96 137.92C123.35 136.78 123.14 135.09 123.49 134.17C124.08 132.66 124.28 132.69 125.57 134.44C127.2 136.65 127.48 140 126.04 140C125.5 140 124.57 139.06 123.96 137.92ZM415.1 136.85C413.72 132.89 413.71 133 415.52 133C416.9 133 419 136.67 419 139.07C419 141.35 416.09 139.7 415.1 136.85ZM478.5 138C477.77 136.82 478.72 135 480.06 135C480.58 135 481 135.9 481 137C481 139.11 479.55 139.69 478.5 138ZM191.97 131.42C190.69 128.05 191.85 126.07 193.65 128.54C195.24 130.71 195.44 134 193.98 134C193.41 134 192.51 132.84 191.97 131.42ZM118.75 129.92C116.57 128.65 116.48 124.67 118.57 122.57C121.51 119.63 126 121.6 126 125.84C126 130.43 122.76 132.25 118.75 129.92ZM408.56 125.78C406.62 123.01 406.59 122 408.44 122C409.83 122 413 125.63 413 127.22C413 128.86 410.04 127.9 408.56 125.78ZM454.2 125.8C451.39 123 453.51 118 457.5 118C460.18 118 462 119.82 462 122.5C462 125.18 460.18 127 457.5 127C456.35 127 454.86 126.46 454.2 125.8ZM477.24 123.75C468.38 114.31 468.97 94.02 478.55 78.75C482.93 71.77 485.69 71.14 488.93 76.39C496.75 89.04 495.18 109.75 485.51 121.55C481.37 126.61 480.21 126.92 477.24 123.75ZM190 118.08C190 115.05 190.4 114 191.56 114C192.75 114 193.05 114.88 192.81 117.67C192.36 122.95 190 123.29 190 118.08ZM399.25 117.19C395.98 115.63 394.81 113 397.39 113C399.34 113 403.36 116.43 402.89 117.7C402.64 118.37 401.35 118.2 399.25 117.19ZM387.56 107.78C385.63 105.03 385.59 104 387.38 104C388.6 104 392 108.02 392 109.46C392 110.9 388.93 109.74 387.56 107.78ZM190.6 108.16C189.81 106.88 191.46 101.68 192.8 101.23C193.52 100.99 194 101.84 194 103.33C194 107.82 192.08 110.55 190.6 108.16ZM402.07 98.71C398.36 96.85 398.04 94.55 401.62 95.43C405.26 96.33 406.72 97.68 405.44 98.96C404.82 99.58 403.61 99.49 402.07 98.71ZM222.24 96.84C219.33 93.93 222.11 89.27 226.01 90.5C227.66 91.03 228.05 91.85 227.81 94.34C227.47 97.79 224.52 99.12 222.24 96.84ZM386 95.93C386 93.39 387.73 90 389.04 90C390.34 90 390.25 92.35 388.84 95.45C387.44 98.53 386 98.77 386 95.93ZM412 97.13C412 96.66 412.96 95.05 414.13 93.56C416.92 90.02 419.1 91.67 416.63 95.45C415.04 97.87 412 98.98 412 97.13ZM195 93.62C195 91.2 197.55 88.21 198.66 89.33C199.46 90.13 197.01 96 195.88 96C195.4 96 195 94.93 195 93.62ZM392.98 87.43C392.33 85.47 391.96 83.73 392.15 83.57C392.34 83.41 394.39 82.99 396.69 82.64C401.87 81.84 403.12 83.37 399.03 85.48C397.21 86.43 396 87.84 396 89.03C396 92.21 394.25 91.29 392.98 87.43ZM229.6 89.16C228.85 87.95 230.92 82 232.1 82C233.55 82 233.13 87.64 231.59 88.93C230.76 89.62 229.94 89.71 229.6 89.16ZM410.25 85.25C406.4 83.34 406.06 82 409.43 82C412.11 82 415.35 84.63 414.45 86.08C414.14 86.59 413.8 86.97 413.69 86.94C413.59 86.9 412.04 86.14 410.25 85.25ZM201.51 84.01C201.17 83.46 202.12 81.79 203.62 80.29C206.83 77.08 208.08 78.65 205.32 82.43C203.34 85.16 202.45 85.53 201.51 84.01ZM226.75 76.39C223.88 74.87 222.99 72 225.39 72C226.15 72 227.84 72.87 229.14 73.93C232.35 76.56 230.56 78.41 226.75 76.39ZM393.56 77.1C392.84 75.93 394.5 71.43 396 70.5C397.91 69.32 398.33 70.79 397 73.99C395.58 77.42 394.41 78.48 393.56 77.1ZM211 75.12C211 73.51 216.99 71.59 218.22 72.82C219.03 73.63 218.59 74.2 216.6 74.96C213.26 76.23 211 76.3 211 75.12ZM401.66 65.32C400.77 64.44 404.96 60 406.67 60C408.64 60 408.29 61.38 405.69 63.83C403.18 66.18 402.69 66.36 401.66 65.32ZM413 58.14C413 56.7 416.33 55 419.15 55C421.14 55 421.24 55.18 419.96 56.43C418.03 58.33 413 59.56 413 58.14ZM424.2 56.8C422.56 55.16 422.69 51.5 424.44 50.05C426.56 48.29 431.41 49.13 431.83 51.33C432.58 55.28 431.09 58 428.18 58C426.65 58 424.86 57.46 424.2 56.8ZM323.61 48.72C321.74 42.3 318.92 39.44 313.17 38.15C310.79 37.62 308.59 36.93 308.28 36.62C307.72 36.05 312.29 34 314.11 34C314.66 34 316.4 33.33 317.99 32.5C320.13 31.4 321.46 29.44 323.07 25.02C324.27 21.73 325.59 19.25 326 19.5C326.42 19.76 327.25 21.95 327.87 24.39C329.22 29.78 333.36 33.55 338.97 34.49C341.18 34.87 343 35.55 343 36.02C343 36.48 340.55 37.57 337.57 38.44C331.29 40.26 328.48 43.22 327.5 49.02C326.52 54.81 325.35 54.72 323.61 48.72Z" fill="#F3F4F7"/>
</g>
</g>
</svg>
