<svg xmlns="http://www.w3.org/2000/svg" width="617" height="385" viewBox="0 0 617 385">
<g>
<path d="M 283.20 288.31 C285.37,291.50 287.67,293.94 288.31,293.73 C291.86,292.55 291.07,274.61 286.99,263.70 C284.19,256.22 277.61,249.05 270.86,246.11 C263.00,242.69 262.73,242.53 261.57,240.62 C260.73,239.26 260.92,238.57 262.44,237.44 C263.51,236.65 265.24,236.00 266.30,236.00 C268.96,236.00 276.72,240.03 282.39,244.37 C282.61,244.53 282.82,244.69 283.03,244.85 C285.75,246.94 287.44,248.23 288.47,247.83 C290.16,247.17 290.08,241.96 289.86,228.20 C289.86,227.57 289.84,226.92 289.83,226.25 C289.50,204.71 289.47,204.46 286.81,199.92 C281.09,190.19 270.88,183.74 261.00,183.60 C251.15,183.47 247.03,187.64 244.34,200.49 C243.40,204.97 241.20,206.06 238.53,203.39 C236.24,201.10 237.23,194.46 240.96,187.08 L 243.73 181.60 L 240.37 174.58 C235.27,163.94 236.18,156.42 243.42,149.45 C249.33,143.75 256.65,141.57 267.58,142.25 C275.73,142.76 278.25,143.65 286.70,149.02 C287.92,149.79 289.14,150.19 289.43,149.90 C290.60,148.73 290.43,112.42 289.23,108.41 C286.33,98.69 277.92,90.72 269.17,89.39 C257.73,87.66 239.34,93.56 232.47,101.16 C227.19,107.01 227.71,108.41 236.13,110.97 C248.12,114.61 254.90,120.29 253.57,125.59 C252.73,128.92 250.45,128.61 245.38,124.46 C238.40,118.73 232.70,116.67 225.58,117.27 C222.23,117.56 217.36,118.72 214.74,119.86 C208.53,122.57 200.43,130.22 197.36,136.28 C194.45,142.02 192.62,150.99 193.52,155.07 C194.14,157.93 194.31,158.00 200.42,158.00 C208.75,158.00 215.55,160.17 219.65,164.14 C226.33,170.62 222.29,174.85 214.48,169.55 C207.53,164.83 194.68,164.87 185.92,169.64 C175.46,175.33 166.91,188.29 164.84,201.59 C164.07,206.57 164.10,209.38 164.96,212.27 C166.00,215.74 166.85,216.51 172.32,218.99 C183.20,223.92 212.54,232.96 217.75,232.99 C220.19,233.01 218.95,231.03 215.14,228.84 C210.17,225.98 207.48,221.97 205.55,214.54 C203.60,207.05 203.60,203.89 205.54,199.25 C207.71,194.05 209.87,192.00 213.19,192.00 C217.10,192.00 217.54,193.92 214.80,199.11 C213.16,202.24 212.50,205.18 212.50,209.32 C212.50,209.58 212.50,209.83 212.50,210.06 C212.49,211.68 212.49,212.81 212.79,213.85 C213.53,216.41 216.10,218.43 224.98,225.87 C228.15,228.52 229.00,229.91 229.00,232.47 C229.00,235.59 229.34,235.86 238.48,239.99 C253.44,246.75 259.00,252.55 259.00,261.40 C259.00,265.65 259.27,266.09 263.75,269.15 C270.89,274.04 278.77,281.80 283.20,288.31 Z M 303.04 293.07 C303.60,294.13 304.39,295.00 304.79,294.99 C305.18,294.98 307.13,292.35 309.11,289.14 C311.63,285.07 315.14,281.46 320.69,277.23 C330.22,269.98 331.72,267.87 334.10,258.37 C338.67,240.06 345.21,234.30 380.53,217.45 C389.31,213.26 401.11,207.61 406.75,204.90 C417.54,199.70 426.00,192.88 426.00,189.37 C426.00,186.40 420.87,178.90 415.98,174.72 C408.61,168.41 403.67,166.54 393.50,166.21 L 392.99 166.19 C388.65,166.04 386.48,165.97 384.50,166.57 C382.44,167.19 380.61,168.53 376.77,171.27 C372.39,174.39 369.32,171.01 371.99,166.02 C374.04,162.19 379.14,160.20 388.81,159.45 C397.94,158.75 401.00,157.53 401.00,154.61 C401.00,153.93 400.51,150.70 399.91,147.43 C395.20,121.70 366.34,108.56 348.48,124.02 C343.46,128.36 341.91,128.80 339.96,126.45 C338.90,125.18 338.97,124.29 340.32,121.45 C342.41,117.07 346.50,114.58 355.08,112.48 C358.81,111.57 362.65,110.25 363.60,109.55 C365.23,108.36 365.20,108.06 363.13,104.71 C360.06,99.75 354.58,95.17 348.05,92.10 C343.29,89.87 341.14,89.50 333.00,89.50 C324.57,89.50 322.84,89.82 317.68,92.36 C311.03,95.62 305.76,101.94 304.06,108.69 C303.48,111.00 303.00,120.84 303.00,130.56 L 303.00 148.23 L 305.25 147.68 C306.49,147.37 310.20,146.12 313.50,144.89 C318.10,143.18 321.75,142.64 329.09,142.59 C337.83,142.53 339.21,142.79 344.59,145.51 C349.50,147.99 350.91,149.32 352.89,153.33 C356.22,160.04 356.14,167.36 352.64,174.09 C349.38,180.38 349.36,181.70 352.50,187.60 C354.24,190.86 355.00,193.86 354.98,197.40 C354.97,203.59 353.98,205.45 351.18,204.56 C348.99,203.86 348.59,202.98 347.50,196.50 C345.41,184.01 334.68,180.00 320.49,186.41 C314.04,189.32 309.32,194.10 306.08,200.99 C303.60,206.29 303.49,207.33 303.18,227.75 L 303.17 228.23 C302.96,242.50 302.87,248.35 304.74,249.06 C306.05,249.56 308.29,247.60 312.10,244.27 L 312.28 244.11 C321.35,236.17 330.86,233.83 332.54,239.11 C333.42,241.89 331.72,243.37 325.28,245.45 C314.98,248.78 307.09,258.58 303.53,272.46 C301.78,279.30 301.51,290.22 303.04,293.07 Z M 390.52 333.75 C391.83,337.65 405.81,331.31 414.07,323.06 C421.54,315.60 425.28,307.70 425.81,298.25 C426.20,291.33 426.12,291.00 424.03,291.00 C422.82,291.00 418.61,292.42 414.67,294.15 C406.18,297.88 400.31,298.76 397.59,296.72 C394.51,294.41 396.35,292.38 403.68,289.98 C422.46,283.83 431.80,277.21 437.21,266.22 C440.44,259.66 440.50,259.28 440.50,245.99 C440.50,233.43 440.31,232.08 437.95,227.47 C434.81,221.37 432.69,220.88 427.46,225.03 C425.30,226.75 419.16,230.40 413.81,233.14 C404.12,238.12 404.09,238.16 401.97,243.82 C399.46,250.54 397.47,253.00 394.55,253.00 C390.61,253.00 389.90,251.11 392.18,246.66 L 394.24 242.60 L 391.49 240.41 C389.98,239.21 389.04,237.75 389.39,237.18 C389.75,236.60 392.51,235.20 395.54,234.07 C403.59,231.06 410.33,227.50 420.84,220.71 C429.76,214.95 430.16,214.54 429.59,211.71 C429.27,210.08 429.00,207.01 429.00,204.88 C429.00,202.29 428.55,201.00 427.65,201.00 C426.90,201.00 422.85,203.29 418.64,206.10 C414.43,208.90 402.42,215.18 391.96,220.05 C364.66,232.74 355.09,238.54 346.77,247.44 C339.80,254.91 339.49,263.03 345.91,269.91 C349.50,273.74 351.34,273.77 358.35,270.08 C364.79,266.69 374.21,265.10 376.51,267.01 C380.32,270.17 377.05,274.00 370.53,274.00 C363.57,274.00 354.71,280.64 351.55,288.22 C349.69,292.69 349.57,302.61 351.35,305.81 C353.88,310.37 357.84,311.99 366.52,311.99 C372.39,312.00 375.46,312.50 378.02,313.85 C382.54,316.26 387.66,322.98 389.02,328.29 C389.61,330.61 390.29,333.06 390.52,333.75 Z M 191.20 331.47 C200.79,336.26 202.64,336.16 203.98,330.75 C207.40,316.94 216.72,310.08 229.98,311.58 C235.62,312.22 236.05,312.11 238.87,309.28 C244.64,303.51 245.29,292.73 240.38,284.25 C237.59,279.44 234.05,277.35 223.20,274.10 C215.73,271.86 213.83,270.11 216.01,267.49 C218.40,264.61 227.13,265.59 235.38,269.67 C242.14,273.01 243.05,273.22 245.81,272.08 C251.76,269.61 252.53,261.00 247.39,254.27 C242.73,248.16 230.98,243.53 202.00,236.37 C183.72,231.85 174.28,229.00 168.66,226.29 L 160.82 222.51 L 158.76 225.00 C157.63,226.38 155.60,229.90 154.24,232.84 C152.05,237.59 151.82,239.21 152.18,247.34 C152.70,258.91 155.72,265.54 164.91,275.28 C172.66,283.50 176.69,285.99 188.51,289.83 C195.69,292.17 197.56,293.18 197.81,294.84 C198.49,299.35 189.42,299.01 178.28,294.12 C167.82,289.53 167.71,289.58 168.15,298.25 C168.83,311.76 177.89,324.81 191.20,331.47 Z M 330.73 373.97 C332.81,374.49 337.88,374.79 342.02,374.64 C354.98,374.16 366.26,367.44 373.83,355.70 C378.97,347.71 381.00,341.47 381.00,333.61 C381.00,326.06 378.27,321.08 373.36,319.67 C366.08,317.59 353.28,324.62 348.96,333.07 C345.48,339.90 340.98,340.17 341.02,333.55 C341.03,330.69 342.95,326.79 347.41,320.55 C349.25,317.97 349.25,317.75 347.53,314.19 C342.06,302.84 340.73,293.98 343.50,287.35 C345.54,282.47 345.39,280.44 342.81,278.04 C339.34,274.80 334.93,275.40 329.27,279.88 C318.34,288.52 308.95,302.91 305.04,317.00 C302.50,326.18 302.14,342.35 304.35,348.60 C309.07,361.92 318.37,370.87 330.73,373.97 Z M 247.12 373.42 C259.12,376.65 269.52,374.53 276.64,367.41 C286.34,357.72 291.55,339.72 289.16,324.19 C285.86,302.79 274.60,283.94 260.95,276.97 L 256.81 274.86 L 252.79 277.52 C249.01,280.02 248.81,280.41 249.40,283.84 C251.15,293.87 251.21,299.76 249.64,305.18 C248.75,308.24 247.34,311.30 246.51,311.99 C243.90,314.16 244.77,318.58 249.00,324.62 C253.29,330.74 254.21,335.75 251.48,338.02 C249.59,339.58 246.70,337.26 243.98,332.00 C240.24,324.74 232.31,319.00 226.03,319.00 C217.80,319.00 213.00,325.71 213.00,337.22 C212.99,340.67 213.77,345.75 214.73,348.50 C218.09,358.13 233.05,369.64 247.12,373.42 Z M 283.60 184.48 C285.75,186.37 288.01,187.94 288.62,187.96 C290.12,188.01 291.00,183.23 290.99,175.12 C290.97,159.58 279.98,149.07 263.70,149.02 C255.92,149.00 252.67,150.33 248.24,155.37 C244.51,159.62 243.47,163.86 245.00,168.51 C246.55,173.19 250.46,175.09 260.63,176.12 C270.73,177.15 278.51,179.98 283.60,184.48 Z M 302.61 186.42 C303.48,188.70 305.08,188.38 309.02,185.14 C315.09,180.16 320.61,178.01 331.12,176.53 C342.04,175.00 344.30,173.79 346.64,168.28 C349.66,161.15 347.46,154.90 340.66,151.27 C336.40,149.00 322.95,149.04 317.79,151.34 C307.50,155.93 302.03,164.90 302.01,177.17 C302.00,181.39 302.27,185.55 302.61,186.42 Z M 477.24 123.75 C480.21,126.92 481.37,126.61 485.51,121.55 C495.18,109.75 496.75,89.04 488.93,76.39 C485.69,71.14 482.93,71.77 478.55,78.75 C468.97,94.02 468.38,114.31 477.24,123.75 Z M 109.42 171.07 C118.33,176.18 120.20,174.97 120.20,164.13 C120.20,150.18 112.44,135.86 101.38,129.37 C98.81,127.87 95.96,126.99 94.29,127.18 C91.60,127.49 91.49,127.73 91.20,133.85 C90.44,149.92 97.42,164.19 109.42,171.07 Z M 484.10 143.14 C486.44,144.72 493.39,143.44 498.37,140.52 C504.87,136.71 508.19,132.07 508.78,125.96 L 509.25 121.00 L 504.77 121.00 C498.79,121.00 490.37,125.49 486.73,130.63 C483.39,135.33 482.04,141.75 484.10,143.14 Z M 323.61 48.72 C325.35,54.72 326.52,54.81 327.50,49.02 C328.48,43.22 331.29,40.26 337.57,38.44 C340.55,37.57 343.00,36.48 343.00,36.02 C343.00,35.55 341.18,34.87 338.97,34.49 C333.36,33.55 329.22,29.78 327.87,24.39 C327.25,21.95 326.42,19.76 326.00,19.50 C325.59,19.25 324.27,21.73 323.07,25.02 C321.46,29.44 320.13,31.40 317.99,32.50 C316.40,33.33 314.66,34.00 314.11,34.00 C312.29,34.00 307.72,36.05 308.28,36.62 C308.59,36.93 310.79,37.62 313.17,38.15 C318.92,39.44 321.74,42.30 323.61,48.72 Z M 484.55 258.39 C485.42,263.03 486.40,262.96 487.83,258.16 C489.22,253.52 491.84,250.99 496.13,250.11 C499.63,249.39 501.32,247.00 498.33,247.00 C494.83,246.99 489.84,243.01 488.25,238.96 C487.40,236.78 486.39,235.00 486.01,235.00 C485.63,235.00 484.78,236.78 484.13,238.96 C482.80,243.41 480.15,245.69 475.26,246.61 C472.58,247.11 472.17,247.50 473.10,248.62 C473.73,249.38 475.34,250.00 476.67,250.00 C479.96,250.00 483.72,254.00 484.55,258.39 Z M 93.61 222.62 L 95.20 226.42 L 96.55 223.21 C97.30,221.45 99.05,219.48 100.45,218.84 C103.65,217.38 103.68,216.27 100.56,214.85 C99.22,214.23 97.46,212.38 96.66,210.72 L 95.20 207.71 L 93.59 210.82 C92.70,212.54 91.08,214.42 89.99,215.01 C87.45,216.37 87.45,217.62 90.01,218.29 C91.14,218.59 92.73,220.50 93.61,222.62 Z M 118.75 129.92 C122.76,132.25 126.00,130.43 126.00,125.84 C126.00,121.60 121.51,119.63 118.57,122.57 C116.48,124.67 116.57,128.65 118.75,129.92 Z M 424.20 56.80 C424.86,57.46 426.65,58.00 428.18,58.00 C431.09,58.00 432.58,55.28 431.83,51.33 C431.41,49.13 426.56,48.29 424.44,50.05 C422.69,51.50 422.56,55.16 424.20,56.80 Z M 454.20 125.80 C454.86,126.46 456.35,127.00 457.50,127.00 C460.18,127.00 462.00,125.18 462.00,122.50 C462.00,119.82 460.18,118.00 457.50,118.00 C453.51,118.00 451.39,123.00 454.20,125.80 Z M 101.20 187.80 C104.39,190.99 109.16,187.04 107.00,183.00 C105.71,180.60 103.70,180.44 101.57,182.57 C99.69,184.45 99.57,186.17 101.20,187.80 Z M 222.24 96.84 C224.52,99.12 227.47,97.79 227.81,94.34 C228.05,91.85 227.66,91.03 226.01,90.50 C222.11,89.27 219.33,93.93 222.24,96.84 Z M 392.98 87.43 C394.25,91.29 396.00,92.21 396.00,89.03 C396.00,87.84 397.21,86.43 399.03,85.48 C403.12,83.37 401.87,81.84 396.69,82.64 C394.39,82.99 392.34,83.41 392.15,83.57 C391.96,83.73 392.33,85.47 392.98,87.43 Z M 138.58 168.37 C137.93,171.11 138.03,171.21 140.70,170.55 C144.82,169.53 145.30,168.60 143.11,165.91 C140.89,163.19 139.65,163.86 138.58,168.37 Z M 484.05 171.56 C485.94,173.83 488.45,172.87 488.82,169.74 C489.09,167.38 488.78,167.00 486.54,167.00 C483.51,167.00 482.22,169.36 484.05,171.56 Z M 226.75 76.39 C230.56,78.41 232.35,76.56 229.14,73.93 C227.84,72.87 226.15,72.00 225.39,72.00 C222.99,72.00 223.88,74.87 226.75,76.39 Z M 448.56 164.22 C449.25,164.92 452.86,164.03 453.49,163.01 C454.20,161.87 450.27,158.72 449.06,159.46 C447.94,160.15 447.61,163.28 448.56,164.22 Z M 415.10 136.85 C416.09,139.70 419.00,141.35 419.00,139.07 C419.00,136.67 416.90,133.00 415.52,133.00 C415.48,133.00 415.43,133.00 415.38,133.00 C414.77,133.00 414.38,133.00 414.21,133.19 C413.93,133.50 414.22,134.34 414.99,136.54 Z M 410.25 85.25 C412.04,86.14 413.59,86.90 413.69,86.94 C413.80,86.97 414.14,86.59 414.45,86.08 C415.35,84.63 412.11,82.00 409.43,82.00 C406.06,82.00 406.40,83.34 410.25,85.25 Z M 190.60 108.16 C192.08,110.55 194.00,107.82 194.00,103.33 C194.00,101.84 193.52,100.99 192.80,101.23 C191.46,101.68 189.81,106.88 190.60,108.16 Z M 412.00 97.13 C412.00,98.98 415.04,97.87 416.63,95.45 C419.10,91.67 416.92,90.02 414.13,93.56 C412.96,95.05 412.00,96.66 412.00,97.13 Z M 408.56 125.78 C410.04,127.90 413.00,128.86 413.00,127.22 C413.00,125.63 409.83,122.00 408.44,122.00 C406.59,122.00 406.62,123.01 408.56,125.78 Z M 413.00 165.22 C413.00,167.99 414.78,167.32 416.56,163.89 C417.60,161.87 417.83,160.43 417.20,159.80 C416.04,158.64 413.00,162.56 413.00,165.22 Z M 386.00 95.93 C386.00,98.77 387.44,98.53 388.84,95.45 C390.25,92.35 390.34,90.00 389.04,90.00 C387.73,90.00 386.00,93.39 386.00,95.93 Z M 393.56 77.10 C394.41,78.48 395.58,77.42 397.00,73.99 C398.33,70.79 397.91,69.32 396.00,70.50 C394.50,71.43 392.84,75.93 393.56,77.10 Z M 399.25 117.19 C401.35,118.20 402.64,118.37 402.89,117.70 C403.36,116.43 399.34,113.00 397.39,113.00 C394.81,113.00 395.98,115.63 399.25,117.19 Z M 387.56 107.78 C388.93,109.74 392.00,110.90 392.00,109.46 C392.00,108.02 388.60,104.00 387.38,104.00 C385.59,104.00 385.63,105.03 387.56,107.78 Z M 401.66 65.32 C402.69,66.36 403.18,66.18 405.69,63.83 C408.29,61.38 408.64,60.00 406.67,60.00 C404.96,60.00 400.77,64.44 401.66,65.32 Z M 190.00 118.08 C190.00,123.29 192.36,122.95 192.81,117.67 C193.05,114.88 192.75,114.00 191.56,114.00 C190.40,114.00 190.00,115.05 190.00,118.08 Z M 149.20 175.80 C150.62,177.22 154.00,177.40 154.00,176.06 C154.00,175.05 150.07,172.00 148.78,172.00 C147.58,172.00 147.86,174.46 149.20,175.80 Z M 229.60 89.16 C229.94,89.71 230.76,89.62 231.59,88.93 C233.13,87.64 233.55,82.00 232.10,82.00 C230.92,82.00 228.85,87.95 229.60,89.16 Z M 161.17 168.68 C163.66,171.33 165.00,171.64 165.00,169.57 C165.00,168.06 162.38,165.00 161.10,165.00 C159.15,165.00 159.18,166.56 161.17,168.68 Z M 417.00 150.50 C417.00,152.94 417.45,154.00 418.50,154.00 C419.55,154.00 420.00,152.94 420.00,150.50 C420.00,148.06 419.55,147.00 418.50,147.00 C417.45,147.00 417.00,148.06 417.00,150.50 Z M 402.07 98.71 C403.61,99.49 404.82,99.58 405.44,98.96 C406.72,97.68 405.26,96.33 401.62,95.43 C398.04,94.55 398.36,96.85 402.07,98.71 Z M 211.00 75.12 C211.00,76.30 213.26,76.23 216.60,74.96 C218.59,74.20 219.03,73.63 218.22,72.82 C216.99,71.59 211.00,73.51 211.00,75.12 Z M 413.00 58.14 C413.00,59.56 418.03,58.33 419.96,56.43 C421.24,55.18 421.14,55.00 419.15,55.00 C416.33,55.00 413.00,56.70 413.00,58.14 Z M 201.51 84.01 C202.45,85.53 203.34,85.16 205.32,82.43 C208.08,78.65 206.83,77.08 203.62,80.29 C202.12,81.79 201.17,83.46 201.51,84.01 Z M 135.16 201.45 C136.33,204.02 137.15,204.52 138.29,203.37 C139.12,202.55 136.23,197.00 134.97,197.00 C133.69,197.00 133.74,198.34 135.16,201.45 Z M 123.96 137.92 C124.57,139.06 125.50,140.00 126.04,140.00 C127.48,140.00 127.20,136.65 125.57,134.44 C124.28,132.69 124.08,132.66 123.49,134.17 C123.14,135.09 123.35,136.78 123.96,137.92 Z M 195.00 93.62 C195.00,94.93 195.40,96.00 195.88,96.00 C197.01,96.00 199.46,90.13 198.66,89.33 C197.55,88.21 195.00,91.20 195.00,93.62 Z M 158.00 178.12 C158.00,179.60 162.67,179.10 164.02,177.48 C164.72,176.64 165.01,175.68 164.67,175.34 C163.87,174.54 158.00,176.99 158.00,178.12 Z M 149.24 165.34 C151.06,166.07 152.62,166.08 154.41,165.40 C156.78,164.49 155.28,163.00 152.00,163.00 C148.92,163.00 147.16,164.50 149.24,165.34 Z M 191.97 131.42 C192.51,132.84 193.41,134.00 193.98,134.00 C195.44,134.00 195.24,130.71 193.65,128.54 C191.85,126.07 190.69,128.05 191.97,131.42 Z M 131.49 189.95 C132.22,192.27 134.34,192.25 134.75,189.92 C134.89,189.14 134.57,187.83 134.04,187.01 C132.65,184.84 130.61,187.19 131.49,189.95 Z M 133.57 158.79 C134.42,160.01 135.54,161.00 136.06,161.00 C137.44,161.00 137.15,158.78 135.46,156.55 C133.34,153.74 131.52,155.87 133.57,158.79 Z M 149.59 218.10 C151.35,220.04 154.00,220.68 154.00,219.15 C154.00,217.61 150.14,214.79 149.00,215.50 C148.21,215.99 148.39,216.77 149.59,218.10 Z M 128.04 149.07 C128.60,150.13 129.50,151.00 130.04,151.00 C131.64,151.00 131.12,148.37 129.03,145.86 C127.33,143.81 127.06,143.74 127.03,145.32 C127.01,146.31 127.47,148.00 128.04,149.07 Z M 142.25 210.77 C144.13,212.78 144.55,212.90 144.83,211.54 C145.23,209.57 143.28,207.00 141.38,207.00 C139.43,207.00 139.66,208.01 142.25,210.77 Z M 133.00 178.47 C133.00,179.86 133.38,181.00 133.84,181.00 C134.86,181.00 137.27,175.94 136.58,175.25 C135.37,174.04 133.00,176.17 133.00,178.47 Z M 439.64 180.23 C440.35,181.38 444.00,178.13 444.00,176.35 C444.00,175.61 443.58,175.00 443.06,175.00 C441.70,175.00 438.98,179.16 439.64,180.23 Z M 443.20 157.80 C444.77,159.37 446.00,159.33 446.00,157.70 C446.00,156.26 444.05,154.00 442.80,154.00 C441.59,154.00 441.84,156.44 443.20,157.80 Z M 471.70 155.37 C472.42,156.09 476.00,153.15 476.00,151.85 C476.00,151.38 475.34,151.00 474.54,151.00 C472.90,151.00 470.71,154.38 471.70,155.37 Z M 441.00 148.50 C441.00,151.29 442.46,151.85 443.39,149.42 C444.35,146.92 444.11,146.00 442.50,146.00 C441.57,146.00 441.00,146.94 441.00,148.50 Z M 450.00 153.58 C450.00,156.72 452.35,156.37 452.82,153.17 C453.03,151.73 452.61,151.00 451.57,151.00 C450.55,151.00 450.00,151.90 450.00,153.58 Z M 445.00 171.21 C445.00,174.23 447.45,172.74 447.84,169.48 C448.13,166.96 447.98,166.77 446.59,167.93 C445.71,168.65 445.00,170.13 445.00,171.21 Z M 434.57 186.11 C435.10,186.97 435.68,186.79 436.65,185.46 C438.20,183.34 438.39,182.00 437.12,182.00 C435.58,182.00 433.80,184.87 434.57,186.11 Z M 465.00 160.11 C465.00,161.54 467.64,161.14 469.00,159.50 C469.75,158.59 469.83,158.00 469.20,158.00 C467.37,158.00 465.00,159.19 465.00,160.11 Z M 478.50 138.00 C479.55,139.69 481.00,139.11 481.00,137.00 C481.00,135.90 480.58,135.00 480.06,135.00 C478.72,135.00 477.77,136.82 478.50,138.00 Z M 476.47 146.68 C477.15,148.35 477.30,148.31 478.26,146.24 C479.45,143.68 478.54,142.06 476.85,143.75 C476.23,144.37 476.06,145.67 476.47,146.68 Z M 447.46 145.93 C448.30,147.30 451.00,147.33 451.00,145.97 C451.00,144.77 448.18,143.49 447.36,144.31 C447.05,144.62 447.10,145.35 447.46,145.93 Z M 458.00 164.00 C458.89,164.55 459.98,164.44 460.88,163.69 C462.10,162.69 461.98,162.45 460.08,162.17 C457.28,161.76 456.08,162.81 458.00,164.00 Z" fill="rgb(201,168,76)" fill-rule="evenodd"/>
<path d="M 283.20 288.31 C278.77,281.80 270.89,274.04 263.75,269.15 C259.27,266.09 259.00,265.65 259.00,261.40 C259.00,252.55 253.44,246.75 238.48,239.99 C229.34,235.86 229.00,235.59 229.00,232.47 C229.00,229.91 228.15,228.52 224.98,225.87 C216.10,218.43 213.53,216.41 212.79,213.85 C212.49,212.81 212.49,211.68 212.50,210.06 C212.50,209.83 212.50,209.58 212.50,209.32 C212.50,205.18 213.16,202.24 214.80,199.11 C217.54,193.92 217.10,192.00 213.19,192.00 C209.87,192.00 207.71,194.05 205.54,199.25 C203.60,203.89 203.60,207.05 205.55,214.54 C207.48,221.97 210.17,225.98 215.14,228.84 C218.95,231.03 220.19,233.01 217.75,232.99 C212.54,232.96 183.20,223.92 172.32,218.99 C166.85,216.51 166.00,215.74 164.96,212.27 C164.10,209.38 164.07,206.57 164.84,201.59 C166.91,188.29 175.46,175.33 185.92,169.64 C194.68,164.87 207.53,164.83 214.48,169.55 C222.29,174.85 226.33,170.62 219.65,164.14 C215.55,160.17 208.75,158.00 200.42,158.00 C194.31,158.00 194.14,157.93 193.52,155.07 C192.62,150.99 194.45,142.02 197.36,136.28 C200.43,130.22 208.53,122.57 214.74,119.86 C217.36,118.72 222.23,117.56 225.58,117.27 C232.70,116.67 238.40,118.73 245.38,124.46 C250.45,128.61 252.73,128.92 253.57,125.59 C254.90,120.29 248.12,114.61 236.13,110.97 C227.71,108.41 227.19,107.01 232.47,101.16 C239.34,93.56 257.73,87.66 269.17,89.39 C277.92,90.72 286.33,98.69 289.23,108.41 C290.43,112.42 290.60,148.73 289.43,149.90 C289.14,150.19 287.92,149.79 286.70,149.02 C278.25,143.65 275.73,142.76 267.58,142.25 C256.65,141.57 249.33,143.75 243.42,149.45 C236.18,156.42 235.27,163.94 240.37,174.58 L 243.73 181.60 L 240.96 187.08 C237.23,194.46 236.24,201.10 238.53,203.39 C241.20,206.06 243.40,204.97 244.34,200.49 C247.03,187.64 251.15,183.47 261.00,183.60 C270.88,183.74 281.09,190.19 286.81,199.92 C289.47,204.46 289.50,204.71 289.83,226.25 C289.84,226.92 289.86,227.57 289.86,228.20 C290.08,241.96 290.16,247.17 288.47,247.83 C287.44,248.23 285.75,246.94 283.03,244.85 C282.82,244.69 282.61,244.53 282.39,244.37 C276.72,240.03 268.96,236.00 266.30,236.00 C265.24,236.00 263.51,236.65 262.44,237.44 C260.92,238.57 260.73,239.26 261.57,240.62 C262.73,242.53 263.00,242.69 270.86,246.11 C277.61,249.05 284.19,256.22 286.99,263.70 C291.07,274.61 291.86,292.55 288.31,293.73 C287.67,293.94 285.37,291.50 283.20,288.31 Z M 303.04 293.07 C301.51,290.22 301.78,279.30 303.53,272.46 C307.09,258.58 314.98,248.78 325.28,245.45 C331.72,243.37 333.42,241.89 332.54,239.11 C330.86,233.83 321.35,236.17 312.28,244.11 L 312.10 244.27 C308.29,247.60 306.05,249.56 304.74,249.06 C302.87,248.35 302.96,242.50 303.17,228.23 L 303.18 227.75 C303.49,207.33 303.60,206.29 306.08,200.99 C309.32,194.10 314.04,189.32 320.49,186.41 C334.68,180.00 345.41,184.01 347.50,196.50 C348.59,202.98 348.99,203.86 351.18,204.56 C353.98,205.45 354.97,203.59 354.98,197.40 C355.00,193.86 354.24,190.86 352.50,187.60 C349.36,181.70 349.38,180.38 352.64,174.09 C356.14,167.36 356.22,160.04 352.89,153.33 C350.91,149.32 349.50,147.99 344.59,145.51 C339.21,142.79 337.83,142.53 329.09,142.59 C321.75,142.64 318.10,143.18 313.50,144.89 C310.20,146.12 306.49,147.37 305.25,147.68 L 303.00 148.23 L 303.00 130.56 C303.00,120.84 303.48,111.00 304.06,108.69 C305.76,101.94 311.03,95.62 317.68,92.36 C322.84,89.82 324.57,89.50 333.00,89.50 C341.14,89.50 343.29,89.87 348.05,92.10 C354.58,95.17 360.06,99.75 363.13,104.71 C365.20,108.06 365.23,108.36 363.60,109.55 C362.65,110.25 358.81,111.57 355.08,112.48 C346.50,114.58 342.41,117.07 340.32,121.45 C338.97,124.29 338.90,125.18 339.96,126.45 C341.91,128.80 343.46,128.36 348.48,124.02 C366.34,108.56 395.20,121.70 399.91,147.43 C400.51,150.70 401.00,153.93 401.00,154.61 C401.00,157.53 397.94,158.75 388.81,159.45 C379.14,160.20 374.04,162.19 371.99,166.02 C369.32,171.01 372.39,174.39 376.77,171.27 C380.61,168.53 382.44,167.19 384.50,166.57 C386.48,165.97 388.65,166.04 392.99,166.19 L 393.50 166.21 C403.67,166.54 408.61,168.41 415.98,174.72 C420.87,178.90 426.00,186.40 426.00,189.37 C426.00,192.88 417.54,199.70 406.75,204.90 C401.11,207.61 389.31,213.26 380.53,217.45 C345.21,234.30 338.67,240.06 334.10,258.37 C331.72,267.87 330.22,269.98 320.69,277.23 C315.14,281.46 311.63,285.07 309.11,289.14 C307.13,292.35 305.18,294.98 304.79,294.99 C304.39,295.00 303.60,294.13 303.04,293.07 Z M 390.52 333.75 C390.29,333.06 389.61,330.61 389.02,328.29 C387.66,322.98 382.54,316.26 378.02,313.85 C375.46,312.50 372.39,312.00 366.52,311.99 C357.84,311.99 353.88,310.37 351.35,305.81 C349.57,302.61 349.69,292.69 351.55,288.22 C354.71,280.64 363.57,274.00 370.53,274.00 C377.05,274.00 380.32,270.17 376.51,267.01 C374.21,265.10 364.79,266.69 358.35,270.08 C351.34,273.77 349.50,273.74 345.91,269.91 C339.49,263.03 339.80,254.91 346.77,247.44 C355.09,238.54 364.66,232.74 391.96,220.05 C402.42,215.18 414.43,208.90 418.64,206.10 C422.85,203.29 426.90,201.00 427.65,201.00 C428.55,201.00 429.00,202.29 429.00,204.88 C429.00,207.01 429.27,210.08 429.59,211.71 C430.16,214.54 429.76,214.95 420.84,220.71 C410.33,227.50 403.59,231.06 395.54,234.07 C392.51,235.20 389.75,236.60 389.39,237.18 C389.04,237.75 389.98,239.21 391.49,240.41 L 394.24 242.60 L 392.18 246.66 C389.90,251.11 390.61,253.00 394.55,253.00 C397.47,253.00 399.46,250.54 401.97,243.82 C404.09,238.16 404.12,238.12 413.81,233.14 C419.16,230.40 425.30,226.75 427.46,225.03 C432.69,220.88 434.81,221.37 437.95,227.47 C440.31,232.08 440.50,233.43 440.50,245.99 C440.50,259.28 440.44,259.66 437.21,266.22 C431.80,277.21 422.46,283.83 403.68,289.98 C396.35,292.38 394.51,294.41 397.59,296.72 C400.31,298.76 406.18,297.88 414.67,294.15 C418.61,292.42 422.82,291.00 424.03,291.00 C426.12,291.00 426.20,291.33 425.81,298.25 C425.28,307.70 421.54,315.60 414.07,323.06 C405.81,331.31 391.83,337.65 390.52,333.75 Z M 191.20 331.47 C177.89,324.81 168.83,311.76 168.15,298.25 C167.71,289.58 167.82,289.53 178.28,294.12 C189.42,299.01 198.49,299.35 197.81,294.84 C197.56,293.18 195.69,292.17 188.51,289.83 C176.69,285.99 172.66,283.50 164.91,275.28 C155.72,265.54 152.70,258.91 152.18,247.34 C151.82,239.21 152.05,237.59 154.24,232.84 C155.60,229.90 157.63,226.38 158.76,225.00 L 160.82 222.51 L 168.66 226.29 C174.28,229.00 183.72,231.85 202.00,236.37 C230.98,243.53 242.73,248.16 247.39,254.27 C252.53,261.00 251.76,269.61 245.81,272.08 C243.05,273.22 242.14,273.01 235.38,269.67 C227.13,265.59 218.40,264.61 216.01,267.49 C213.83,270.11 215.73,271.86 223.20,274.10 C234.05,277.35 237.59,279.44 240.38,284.25 C245.29,292.73 244.64,303.51 238.87,309.28 C236.05,312.11 235.62,312.22 229.98,311.58 C216.72,310.08 207.40,316.94 203.98,330.75 C202.64,336.16 200.79,336.26 191.20,331.47 Z M 330.73 373.97 C318.37,370.87 309.07,361.92 304.35,348.60 C302.14,342.35 302.50,326.18 305.04,317.00 C308.95,302.91 318.34,288.52 329.27,279.88 C334.93,275.40 339.34,274.80 342.81,278.04 C345.39,280.44 345.54,282.47 343.50,287.35 C340.73,293.98 342.06,302.84 347.53,314.19 C349.25,317.75 349.25,317.97 347.41,320.55 C342.95,326.79 341.03,330.69 341.02,333.55 C340.98,340.17 345.48,339.90 348.96,333.07 C353.28,324.62 366.08,317.59 373.36,319.67 C378.27,321.08 381.00,326.06 381.00,333.61 C381.00,341.47 378.97,347.71 373.83,355.70 C366.26,367.44 354.98,374.16 342.02,374.64 C337.88,374.79 332.81,374.49 330.73,373.97 Z M 247.12 373.42 C233.05,369.64 218.09,358.13 214.73,348.50 C213.77,345.75 212.99,340.67 213.00,337.22 C213.00,325.71 217.80,319.00 226.03,319.00 C232.31,319.00 240.24,324.74 243.98,332.00 C246.70,337.26 249.59,339.58 251.48,338.02 C254.21,335.75 253.29,330.74 249.00,324.62 C244.77,318.58 243.90,314.16 246.51,311.99 C247.34,311.30 248.75,308.24 249.64,305.18 C251.21,299.76 251.15,293.87 249.40,283.84 C248.81,280.41 249.01,280.02 252.79,277.52 L 256.81 274.86 L 260.95 276.97 C274.60,283.94 285.86,302.79 289.16,324.19 C291.55,339.72 286.34,357.72 276.64,367.41 C269.52,374.53 259.12,376.65 247.12,373.42 Z M 283.60 184.48 C278.51,179.98 270.73,177.15 260.63,176.12 C250.46,175.09 246.55,173.19 245.00,168.51 C243.47,163.86 244.51,159.62 248.24,155.37 C252.67,150.33 255.92,149.00 263.70,149.02 C279.98,149.07 290.97,159.58 290.99,175.12 C291.00,183.23 290.12,188.01 288.62,187.96 C288.01,187.94 285.75,186.37 283.60,184.48 Z M 302.61 186.42 C302.27,185.55 302.00,181.39 302.01,177.17 C302.03,164.90 307.50,155.93 317.79,151.34 C322.95,149.04 336.40,149.00 340.66,151.27 C347.46,154.90 349.66,161.15 346.64,168.28 C344.30,173.79 342.04,175.00 331.12,176.53 C320.61,178.01 315.09,180.16 309.02,185.14 C305.08,188.38 303.48,188.70 302.61,186.42 Z" fill="rgb(201,168,76)" fill-rule="evenodd"/>
<path d="M 484.55 258.39 C483.72,254.00 479.96,250.00 476.67,250.00 C475.34,250.00 473.73,249.38 473.10,248.62 C472.17,247.50 472.58,247.11 475.26,246.61 C480.15,245.69 482.80,243.41 484.13,238.96 C484.78,236.78 485.63,235.00 486.01,235.00 C486.39,235.00 487.40,236.78 488.25,238.96 C489.84,243.01 494.83,246.99 498.33,247.00 C501.32,247.00 499.63,249.39 496.13,250.11 C491.84,250.99 489.22,253.52 487.83,258.16 C486.40,262.96 485.42,263.03 484.55,258.39 Z M 93.61 222.62 C92.73,220.50 91.14,218.59 90.01,218.29 C87.45,217.62 87.45,216.37 89.99,215.01 C91.08,214.42 92.70,212.54 93.59,210.82 L 95.20 207.71 L 96.66 210.72 C97.46,212.38 99.22,214.23 100.56,214.85 C103.68,216.27 103.65,217.38 100.45,218.84 C99.05,219.48 97.30,221.45 96.55,223.21 L 95.20 226.42 L 93.61 222.62 Z M 149.59 218.10 C148.39,216.77 148.21,215.99 149.00,215.50 C150.14,214.79 154.00,217.61 154.00,219.15 C154.00,220.68 151.35,220.04 149.59,218.10 Z M 142.25 210.77 C139.66,208.01 139.43,207.00 141.38,207.00 C143.28,207.00 145.23,209.57 144.83,211.54 C144.55,212.90 144.13,212.78 142.25,210.77 Z M 135.16 201.45 C133.74,198.34 133.69,197.00 134.97,197.00 C136.23,197.00 139.12,202.55 138.29,203.37 C137.15,204.52 136.33,204.02 135.16,201.45 Z M 131.49 189.95 C130.61,187.19 132.65,184.84 134.04,187.01 C134.57,187.83 134.89,189.14 134.75,189.92 C134.34,192.25 132.22,192.27 131.49,189.95 Z M 101.20 187.80 C99.57,186.17 99.69,184.45 101.57,182.57 C103.70,180.44 105.71,180.60 107.00,183.00 C109.16,187.04 104.39,190.99 101.20,187.80 Z M 434.57 186.11 C433.80,184.87 435.58,182.00 437.12,182.00 C438.39,182.00 438.20,183.34 436.65,185.46 C435.68,186.79 435.10,186.97 434.57,186.11 Z M 133.00 178.47 C133.00,176.17 135.37,174.04 136.58,175.25 C137.27,175.94 134.86,181.00 133.84,181.00 C133.38,181.00 133.00,179.86 133.00,178.47 Z M 439.64 180.23 C438.98,179.16 441.70,175.00 443.06,175.00 C443.58,175.00 444.00,175.61 444.00,176.35 C444.00,178.13 440.35,181.38 439.64,180.23 Z M 158.00 178.12 C158.00,176.99 163.87,174.54 164.67,175.34 C165.01,175.68 164.72,176.64 164.02,177.48 C162.67,179.10 158.00,179.60 158.00,178.12 Z M 149.20 175.80 C147.86,174.46 147.58,172.00 148.78,172.00 C150.07,172.00 154.00,175.05 154.00,176.06 C154.00,177.40 150.62,177.22 149.20,175.80 Z M 109.42 171.07 C97.42,164.19 90.44,149.92 91.20,133.85 C91.49,127.73 91.60,127.49 94.29,127.18 C95.96,126.99 98.81,127.87 101.38,129.37 C112.44,135.86 120.20,150.18 120.20,164.13 C120.20,174.97 118.33,176.18 109.42,171.07 Z M 445.00 171.21 C445.00,170.13 445.71,168.65 446.59,167.93 C447.98,166.77 448.13,166.96 447.84,169.48 C447.45,172.74 445.00,174.23 445.00,171.21 Z M 484.05 171.56 C482.22,169.36 483.51,167.00 486.54,167.00 C488.78,167.00 489.09,167.38 488.82,169.74 C488.45,172.87 485.94,173.83 484.05,171.56 Z M 138.58 168.37 C139.65,163.86 140.89,163.19 143.11,165.91 C145.30,168.60 144.82,169.53 140.70,170.55 C138.03,171.21 137.93,171.11 138.58,168.37 Z M 161.17 168.68 C159.18,166.56 159.15,165.00 161.10,165.00 C162.38,165.00 165.00,168.06 165.00,169.57 C165.00,171.64 163.66,171.33 161.17,168.68 Z M 413.00 165.22 C413.00,162.56 416.04,158.64 417.20,159.80 C417.83,160.43 417.60,161.87 416.56,163.89 C414.78,167.32 413.00,167.99 413.00,165.22 Z M 149.24 165.34 C147.16,164.50 148.92,163.00 152.00,163.00 C155.28,163.00 156.78,164.49 154.41,165.40 C152.62,166.08 151.06,166.07 149.24,165.34 Z M 448.56 164.22 C447.61,163.28 447.94,160.15 449.06,159.46 C450.27,158.72 454.20,161.87 453.49,163.01 C452.86,164.03 449.25,164.92 448.56,164.22 Z M 458.00 164.00 C456.08,162.81 457.28,161.76 460.08,162.17 C461.98,162.45 462.10,162.69 460.88,163.69 C459.98,164.44 458.89,164.55 458.00,164.00 Z M 133.57 158.79 C131.52,155.87 133.34,153.74 135.46,156.55 C137.15,158.78 137.44,161.00 136.06,161.00 C135.54,161.00 134.42,160.01 133.57,158.79 Z M 465.00 160.11 C465.00,159.19 467.37,158.00 469.20,158.00 C469.83,158.00 469.75,158.59 469.00,159.50 C467.64,161.14 465.00,161.54 465.00,160.11 Z M 443.20 157.80 C441.84,156.44 441.59,154.00 442.80,154.00 C444.05,154.00 446.00,156.26 446.00,157.70 C446.00,159.33 444.77,159.37 443.20,157.80 Z M 450.00 153.58 C450.00,151.90 450.55,151.00 451.57,151.00 C452.61,151.00 453.03,151.73 452.82,153.17 C452.35,156.37 450.00,156.72 450.00,153.58 Z M 471.70 155.37 C470.71,154.38 472.90,151.00 474.54,151.00 C475.34,151.00 476.00,151.38 476.00,151.85 C476.00,153.15 472.42,156.09 471.70,155.37 Z M 417.00 150.50 C417.00,148.06 417.45,147.00 418.50,147.00 C419.55,147.00 420.00,148.06 420.00,150.50 C420.00,152.94 419.55,154.00 418.50,154.00 C417.45,154.00 417.00,152.94 417.00,150.50 Z M 128.04 149.07 C127.47,148.00 127.01,146.31 127.03,145.32 C127.06,143.74 127.33,143.81 129.03,145.86 C131.12,148.37 131.64,151.00 130.04,151.00 C129.50,151.00 128.60,150.13 128.04,149.07 Z M 441.00 148.50 C441.00,146.94 441.57,146.00 442.50,146.00 C444.11,146.00 444.35,146.92 443.39,149.42 C442.46,151.85 441.00,151.29 441.00,148.50 Z M 476.47 146.68 C476.06,145.67 476.23,144.37 476.85,143.75 C478.54,142.06 479.45,143.68 478.26,146.24 C477.30,148.31 477.15,148.35 476.47,146.68 Z M 447.46 145.93 C447.10,145.35 447.05,144.62 447.36,144.31 C448.18,143.49 451.00,144.77 451.00,145.97 C451.00,147.33 448.30,147.30 447.46,145.93 Z M 484.10 143.14 C482.04,141.75 483.39,135.33 486.73,130.63 C490.37,125.49 498.79,121.00 504.77,121.00 L 509.25 121.00 L 508.78 125.96 C508.19,132.07 504.87,136.71 498.37,140.52 C493.39,143.44 486.44,144.72 484.10,143.14 Z M 123.96 137.92 C123.35,136.78 123.14,135.09 123.49,134.17 C124.08,132.66 124.28,132.69 125.57,134.44 C127.20,136.65 127.48,140.00 126.04,140.00 C125.50,140.00 124.57,139.06 123.96,137.92 Z M 415.10 136.85 C413.72,132.89 413.71,133.00 415.52,133.00 C416.90,133.00 419.00,136.67 419.00,139.07 C419.00,141.35 416.09,139.70 415.10,136.85 Z M 478.50 138.00 C477.77,136.82 478.72,135.00 480.06,135.00 C480.58,135.00 481.00,135.90 481.00,137.00 C481.00,139.11 479.55,139.69 478.50,138.00 Z M 191.97 131.42 C190.69,128.05 191.85,126.07 193.65,128.54 C195.24,130.71 195.44,134.00 193.98,134.00 C193.41,134.00 192.51,132.84 191.97,131.42 Z M 118.75 129.92 C116.57,128.65 116.48,124.67 118.57,122.57 C121.51,119.63 126.00,121.60 126.00,125.84 C126.00,130.43 122.76,132.25 118.75,129.92 Z M 408.56 125.78 C406.62,123.01 406.59,122.00 408.44,122.00 C409.83,122.00 413.00,125.63 413.00,127.22 C413.00,128.86 410.04,127.90 408.56,125.78 Z M 454.20 125.80 C451.39,123.00 453.51,118.00 457.50,118.00 C460.18,118.00 462.00,119.82 462.00,122.50 C462.00,125.18 460.18,127.00 457.50,127.00 C456.35,127.00 454.86,126.46 454.20,125.80 Z M 477.24 123.75 C468.38,114.31 468.97,94.02 478.55,78.75 C482.93,71.77 485.69,71.14 488.93,76.39 C496.75,89.04 495.18,109.75 485.51,121.55 C481.37,126.61 480.21,126.92 477.24,123.75 Z M 190.00 118.08 C190.00,115.05 190.40,114.00 191.56,114.00 C192.75,114.00 193.05,114.88 192.81,117.67 C192.36,122.95 190.00,123.29 190.00,118.08 Z M 399.25 117.19 C395.98,115.63 394.81,113.00 397.39,113.00 C399.34,113.00 403.36,116.43 402.89,117.70 C402.64,118.37 401.35,118.20 399.25,117.19 Z M 387.56 107.78 C385.63,105.03 385.59,104.00 387.38,104.00 C388.60,104.00 392.00,108.02 392.00,109.46 C392.00,110.90 388.93,109.74 387.56,107.78 Z M 190.60 108.16 C189.81,106.88 191.46,101.68 192.80,101.23 C193.52,100.99 194.00,101.84 194.00,103.33 C194.00,107.82 192.08,110.55 190.60,108.16 Z M 402.07 98.71 C398.36,96.85 398.04,94.55 401.62,95.43 C405.26,96.33 406.72,97.68 405.44,98.96 C404.82,99.58 403.61,99.49 402.07,98.71 Z M 222.24 96.84 C219.33,93.93 222.11,89.27 226.01,90.50 C227.66,91.03 228.05,91.85 227.81,94.34 C227.47,97.79 224.52,99.12 222.24,96.84 Z M 386.00 95.93 C386.00,93.39 387.73,90.00 389.04,90.00 C390.34,90.00 390.25,92.35 388.84,95.45 C387.44,98.53 386.00,98.77 386.00,95.93 Z M 412.00 97.13 C412.00,96.66 412.96,95.05 414.13,93.56 C416.92,90.02 419.10,91.67 416.63,95.45 C415.04,97.87 412.00,98.98 412.00,97.13 Z M 195.00 93.62 C195.00,91.20 197.55,88.21 198.66,89.33 C199.46,90.13 197.01,96.00 195.88,96.00 C195.40,96.00 195.00,94.93 195.00,93.62 Z M 392.98 87.43 C392.33,85.47 391.96,83.73 392.15,83.57 C392.34,83.41 394.39,82.99 396.69,82.64 C401.87,81.84 403.12,83.37 399.03,85.48 C397.21,86.43 396.00,87.84 396.00,89.03 C396.00,92.21 394.25,91.29 392.98,87.43 Z M 229.60 89.16 C228.85,87.95 230.92,82.00 232.10,82.00 C233.55,82.00 233.13,87.64 231.59,88.93 C230.76,89.62 229.94,89.71 229.60,89.16 Z M 410.25 85.25 C406.40,83.34 406.06,82.00 409.43,82.00 C412.11,82.00 415.35,84.63 414.45,86.08 C414.14,86.59 413.80,86.97 413.69,86.94 C413.59,86.90 412.04,86.14 410.25,85.25 Z M 201.51 84.01 C201.17,83.46 202.12,81.79 203.62,80.29 C206.83,77.08 208.08,78.65 205.32,82.43 C203.34,85.16 202.45,85.53 201.51,84.01 Z M 226.75 76.39 C223.88,74.87 222.99,72.00 225.39,72.00 C226.15,72.00 227.84,72.87 229.14,73.93 C232.35,76.56 230.56,78.41 226.75,76.39 Z M 393.56 77.10 C392.84,75.93 394.50,71.43 396.00,70.50 C397.91,69.32 398.33,70.79 397.00,73.99 C395.58,77.42 394.41,78.48 393.56,77.10 Z M 211.00 75.12 C211.00,73.51 216.99,71.59 218.22,72.82 C219.03,73.63 218.59,74.20 216.60,74.96 C213.26,76.23 211.00,76.30 211.00,75.12 Z M 401.66 65.32 C400.77,64.44 404.96,60.00 406.67,60.00 C408.64,60.00 408.29,61.38 405.69,63.83 C403.18,66.18 402.69,66.36 401.66,65.32 Z M 413.00 58.14 C413.00,56.70 416.33,55.00 419.15,55.00 C421.14,55.00 421.24,55.18 419.96,56.43 C418.03,58.33 413.00,59.56 413.00,58.14 Z M 424.20 56.80 C422.56,55.16 422.69,51.50 424.44,50.05 C426.56,48.29 431.41,49.13 431.83,51.33 C432.58,55.28 431.09,58.00 428.18,58.00 C426.65,58.00 424.86,57.46 424.20,56.80 Z M 323.61 48.72 C321.74,42.30 318.92,39.44 313.17,38.15 C310.79,37.62 308.59,36.93 308.28,36.62 C307.72,36.05 312.29,34.00 314.11,34.00 C314.66,34.00 316.40,33.33 317.99,32.50 C320.13,31.40 321.46,29.44 323.07,25.02 C324.27,21.73 325.59,19.25 326.00,19.50 C326.42,19.76 327.25,21.95 327.87,24.39 C329.22,29.78 333.36,33.55 338.97,34.49 C341.18,34.87 343.00,35.55 343.00,36.02 C343.00,36.48 340.55,37.57 337.57,38.44 C331.29,40.26 328.48,43.22 327.50,49.02 C326.52,54.81 325.35,54.72 323.61,48.72 Z" fill="rgb(201,168,76)" fill-rule="evenodd"/>
</g>
</svg>